<?xml version="1.0" encoding="UTF-8"?>
<svg id="Layer_2" data-name="Layer 2" xmlns="http://www.w3.org/2000/svg" viewBox="0 0 423.11 475.74">
  <defs>
    <style>
      .cls-1 {
        fill: #fff;
      }
    </style>
  </defs>
  <g id="Layer_1-2" data-name="Layer 1">
    <g>
      <path class="cls-1" d="M322.11,224.59L23,51.9c-10.22-5.9-23,1.48-23,13.28v345.38c0,11.81,12.78,19.18,23,13.28l299.11-172.69c10.22-5.9,10.22-20.66,0-26.56ZM208.8,243.77l-132.93,76.75c-4.54,2.62-10.22-.66-10.22-5.9v-153.49c0-5.25,5.68-8.53,10.22-5.9l132.93,76.75c4.54,2.62,4.54,9.18,0,11.81Z"/>
      <g>
        <path class="cls-1" d="M148.27,61.23h108.75c60.52,0,93.6,28.85,93.6,84.45,0,11.09-1.37,21.1-4.03,30.05l59.67,34.45c8.37-19.45,12.63-42.42,12.63-68.72C418.89,49.26,364.7,0,263.36,0H55.75c-4.05,0-7.82.45-11.29,1.29l103.82,59.94Z"/>
        <path class="cls-1" d="M327.48,311.05l-57.87,33.41,90.16,115.1c8.45,11.26,16.89,16.19,30.26,16.19,19.7,0,33.08-13.37,33.08-33.78,0-8.45-2.81-16.89-9.15-25.34l-86.48-105.58Z"/>
      </g>
    </g>
  </g>
</svg>