<?xml version="1.0" encoding="UTF-8"?>
<svg id="Layer_2" data-name="Layer 2" xmlns="http://www.w3.org/2000/svg" viewBox="0 0 423.11 637.7">
  <defs>
    <style>
      .cls-1 {
        fill: #353535;
      }
    </style>
  </defs>
  <g id="Layer_1-2" data-name="Layer 1">
    <g>
      <g>
        <path class="cls-1" d="M322.11,224.59L23,51.9c-10.22-5.9-23,1.48-23,13.28v345.38c0,11.81,12.78,19.18,23,13.28l299.11-172.69c10.22-5.9,10.22-20.66,0-26.56ZM208.8,243.77l-132.93,76.75c-4.54,2.62-10.22-.66-10.22-5.9v-153.49c0-5.25,5.68-8.53,10.22-5.9l132.93,76.75c4.54,2.62,4.54,9.18,0,11.81Z"/>
        <g>
          <path class="cls-1" d="M148.27,61.23h108.75c60.52,0,93.6,28.85,93.6,84.45,0,11.09-1.37,21.1-4.03,30.05l59.67,34.45c8.37-19.45,12.63-42.42,12.63-68.72C418.89,49.26,364.7,0,263.36,0H55.75c-4.05,0-7.82.45-11.29,1.29l103.82,59.94Z"/>
          <path class="cls-1" d="M327.48,311.05l-57.87,33.41,90.16,115.1c8.45,11.26,16.89,16.19,30.26,16.19,19.7,0,33.08-13.37,33.08-33.78,0-8.45-2.81-16.89-9.15-25.34l-86.48-105.58Z"/>
        </g>
      </g>
      <g>
        <path class="cls-1" d="M99.52,558.72c.63.88,1.01,1.76,1.01,2.64,0,2.01-1.38,3.52-3.52,3.52-1.13,0-2.14-.5-2.89-1.51l-27.04-33.7h-30.56v31.44c0,2.39-1.26,3.77-3.39,3.77-2.26,0-3.52-1.38-3.52-3.77v-77.46c0-2.39,1.51-3.77,3.77-3.77h39.61c17.48,0,26.91,8.55,26.91,24.52s-8.68,23.89-24.65,24.65v.25l24.27,29.42ZM72.48,523.38c13.46,0,20.37-6.41,20.37-18.61s-6.92-18.61-20.37-18.61h-35.96v37.22h35.96Z"/>
        <path class="cls-1" d="M198.73,557.84c2.14,0,3.52,1.13,3.52,3.14s-1.38,3.14-3.52,3.14h-61.24c-2.26,0-3.77-1.38-3.77-3.77v-76.71c0-2.39,1.51-3.77,3.77-3.77h61.24c2.14,0,3.52,1.13,3.52,3.14s-1.38,3.14-3.52,3.14h-58.1v32.32h48.92c2.14,0,3.4,1.26,3.4,3.14,0,2.01-1.26,3.14-3.4,3.14h-48.92v33.07h58.1Z"/>
        <path class="cls-1" d="M299.45,557.84c2.14,0,3.52,1.13,3.52,3.14s-1.38,3.14-3.52,3.14h-61.24c-2.26,0-3.77-1.38-3.77-3.77v-76.71c0-2.39,1.51-3.77,3.77-3.77h61.24c2.14,0,3.52,1.13,3.52,3.14s-1.38,3.14-3.52,3.14h-58.1v32.32h48.92c2.14,0,3.4,1.26,3.4,3.14,0,2.01-1.26,3.14-3.4,3.14h-48.92v33.07h58.1Z"/>
        <path class="cls-1" d="M398.29,557.84c2.14,0,3.52,1.13,3.52,3.14s-1.38,3.14-3.52,3.14h-59.35c-2.26,0-3.77-1.38-3.77-3.77v-77.46c0-2.39,1.26-3.77,3.52-3.77,2.14,0,3.39,1.38,3.39,3.77v74.95h56.21Z"/>
      </g>
      <g>
        <polygon class="cls-1" points="46.98 604.75 43.69 601.4 40.54 604.75 43.84 608.1 46.98 604.75"/>
        <path class="cls-1" d="M57.16,616.4c-.58-1.8-1.44-3.78-2.58-5.95l-2.9,3.45c.8,1.57,1.44,3.05,1.92,4.45.48,1.4.85,2.68,1.1,3.85s.38,2.25.38,3.25c0,1.27-.28,2.42-.85,3.47s-1.33,1.95-2.3,2.7-2.11,1.33-3.42,1.72c-1.32.4-2.72.6-4.22.6-2.27,0-4.19-.34-5.78-1.03-1.58-.68-2.8-1.67-3.65-2.97-.85-1.3-1.27-2.9-1.27-4.8,0-1,.14-2.16.42-3.48.28-1.32.71-2.72,1.28-4.22l-3.3-1.1c-.73,1.87-1.27,3.61-1.6,5.23-.33,1.62-.5,2.94-.5,3.97,0,1.77.29,3.39.88,4.88.58,1.48,1.46,2.77,2.62,3.85,1.17,1.08,2.63,1.92,4.4,2.52,1.77.6,3.82.9,6.15.9,2.93,0,5.5-.54,7.7-1.62,2.2-1.08,3.92-2.6,5.15-4.55,1.23-1.95,1.85-4.23,1.85-6.83,0-.97-.1-2.14-.3-3.53-.2-1.38-.59-2.97-1.17-4.77Z"/>
        <path class="cls-1" d="M128.81,621.4c-1.65-.7-2.87-1.63-3.65-2.8-.78-1.17-1.17-2.4-1.17-3.7,0-1.8.61-3.23,1.83-4.3,1.22-1.07,2.84-1.6,4.88-1.6,1.13,0,2.22.12,3.28.38,1.05.25,2.06.64,3.02,1.17l1.8-3.15c-1.2-.7-2.49-1.23-3.88-1.6-1.38-.37-2.79-.55-4.22-.55-2.03,0-3.84.41-5.42,1.22-1.58.82-2.83,1.95-3.73,3.4-.9,1.45-1.35,3.12-1.35,5.03,0,1.63.36,3.07,1.08,4.3.72,1.23,1.72,2.32,3.02,3.25h-31.3c-1.87,0-3.1-.37-3.7-1.1-.6-.73-.9-1.97-.9-3.7v-28.45h-3.8v26.01c-.13-.16-.26-.32-.4-.49-1.33-1.62-2.89-3.4-4.67-5.35s-3.78-4.01-5.97-6.17c-2.2-2.17-4.6-4.37-7.2-6.6l-.7,4.2c1.8,1.53,3.53,3.08,5.17,4.65,1.65,1.57,3.22,3.12,4.7,4.65,1.48,1.53,2.86,3.01,4.12,4.43,1.27,1.42,2.4,2.74,3.4,3.97.43.53.82,1.02,1.19,1.5-.57.61-1.28,1.1-2.14,1.45-.9.37-1.92.62-3.08.77-1.15.15-2.39.23-3.72.23h-9.05l.75,3.75h7.1c2,0,3.75-.1,5.25-.3,1.5-.2,2.79-.51,3.88-.93,1.03-.4,1.88-.9,2.57-1.51.14.21.29.42.46.61.6.68,1.41,1.21,2.43,1.58,1.02.37,2.27.55,3.77.55h47.1v-3.75h-4.5c-2.5,0-4.57-.35-6.22-1.05Z"/>
        <path class="cls-1" d="M162.43,610.54c.9-1.83,1.61-3.84,2.12-6.02.52-2.18.85-4.54,1-7.08.15-2.53.12-5.22-.08-8.05l-3.8.6c.1,1.83.14,3.59.12,5.28-.02,1.68-.1,3.28-.25,4.8-.15,1.52-.38,2.94-.68,4.27-.26,1.14-.59,2.21-.97,3.23-1.64-1.8-3.53-3.61-5.68-5.43-2.4-2.03-5.13-4.03-8.2-6l-1,3.9c3,2,5.66,3.95,7.97,5.85,2.06,1.69,3.83,3.39,5.32,5.08-.18.32-.35.65-.55.97-.77,1.23-1.62,2.44-2.55,3.62-.93,1.18-1.92,2.33-2.98,3.45-1.05,1.12-2.14,2.21-3.27,3.27l.75,3.9h16.85c.2-.6.35-1.2.45-1.8.1-.6.15-1.2.15-1.8,0-2.03-.45-4.13-1.35-6.3-.79-1.9-1.94-3.82-3.4-5.75ZM153.63,622.45c1.07-1.1,2.12-2.3,3.18-3.6,1.05-1.3,2.06-2.65,3.02-4.05.25-.37.48-.74.72-1.11.92,1.27,1.67,2.54,2.25,3.81.75,1.63,1.21,3.28,1.38,4.95h-10.55Z"/>
        <path class="cls-1" d="M153.88,589.55h-2.35c-1.37,0-2.35-.24-2.95-.72-.6-.48-.9-1.08-.9-1.78,0-.6.2-1.1.6-1.5.4-.4,1-.6,1.8-.6.37,0,.73.04,1.1.12.37.08.72.21,1.05.38l.95-2c-.47-.23-.98-.42-1.53-.55s-1.11-.2-1.67-.2c-1.37,0-2.48.4-3.33,1.2-.85.8-1.28,1.83-1.28,3.1,0,.5.08.96.25,1.38.17.42.4.81.7,1.17h-2.2v2.25h9.75v-2.25Z"/>
        <rect class="cls-1" x="175.43" y="589.2" width="3.8" height="37"/>
        <path class="cls-1" d="M204.98,611.47c-.83-1.25-1.83-2.22-3-2.92-1.17-.7-2.45-1.05-3.85-1.05-1.23,0-2.41.27-3.53.8-1.12.53-2.11,1.28-2.97,2.23-.87.95-1.56,2.07-2.08,3.38-.52,1.3-.78,2.72-.78,4.25,0,1.13.18,2.16.55,3.07.37.92.93,1.72,1.7,2.4.77.68,1.73,1.21,2.88,1.58,1.15.37,2.49.55,4.03.55,1,0,2.01-.1,3.02-.3s1.99-.47,2.93-.8c-.3,1.9-.9,3.55-1.8,4.95-.9,1.4-2.07,2.48-3.5,3.23s-3.08,1.12-4.95,1.12c-1,0-2.12-.18-3.38-.55-1.25-.37-2.43-.83-3.53-1.4l-1.5,2.75c1.4.97,2.89,1.7,4.47,2.2s3.04.75,4.38.75c1.8,0,3.42-.28,4.85-.85,1.43-.57,2.69-1.36,3.77-2.38s1.99-2.19,2.73-3.52c.73-1.33,1.27-2.78,1.62-4.33.35-1.55.52-3.14.52-4.78,0-2.17-.22-4.12-.67-5.88s-1.09-3.25-1.92-4.5ZM201.18,621.72c-.97.18-1.92.28-2.85.28-1.43,0-2.58-.17-3.45-.53-.87-.35-1.51-.85-1.93-1.5-.42-.65-.62-1.44-.62-2.38,0-1.07.24-2.08.73-3.05.48-.97,1.16-1.76,2.02-2.38.87-.62,1.82-.92,2.85-.92,1.2,0,2.24.43,3.12,1.3.88.87,1.58,2.03,2.1,3.48.52,1.45.83,3.06.92,4.82-.97.4-1.93.69-2.9.88Z"/>
        <polygon class="cls-1" points="255.38 593.65 252.03 590.3 248.88 593.65 252.23 597 255.38 593.65"/>
        <polygon class="cls-1" points="247.48 593.65 244.13 590.3 240.98 593.65 244.33 597 247.48 593.65"/>
        <polygon class="cls-1" points="279.33 633.6 282.68 636.95 285.83 633.6 282.48 630.25 279.33 633.6"/>
        <path class="cls-1" d="M291.55,618.82c-.08-2.38-.47-4.73-1.17-7.03s-1.6-4.57-2.7-6.8l-3.2,3.2c1.3,2.5,2.25,4.91,2.85,7.22.6,2.32.8,4.66.6,7.03h-26.7c-1.97,0-3.28-.37-3.93-1.1-.65-.73-.97-1.97-.97-3.7v-17.25h-3.8v4.06c-2.41,1.01-4.52,1.93-6.28,2.76-2.08.98-3.76,1.93-5.02,2.83-1.27.9-2.19,1.86-2.78,2.88-.58,1.02-.88,2.17-.88,3.48,0,1.43.43,2.67,1.3,3.7.87,1.03,2.07,1.83,3.6,2.38,1.53.55,3.27.83,5.2.83,1.43,0,2.7-.09,3.8-.27.59-.1,1.19-.24,1.82-.43.25.55.56,1.05.96,1.48.62.68,1.45,1.21,2.5,1.58s2.34.55,3.88.55h29.8c.83-2.53,1.21-4.99,1.12-7.38ZM249.73,619.52c-.67.05-1.35.07-2.05.07-2.03,0-3.59-.29-4.67-.88-1.08-.58-1.62-1.41-1.62-2.47,0-.63.18-1.22.55-1.78.37-.55,1.03-1.15,1.98-1.8.95-.65,2.3-1.37,4.05-2.15,1.26-.56,2.79-1.19,4.58-1.89v9.76c0,.21.03.39.04.59-.25.06-.52.15-.76.21-.72.17-1.41.27-2.07.33Z"/>
        <polygon class="cls-1" points="287.23 633.6 290.58 636.95 293.73 633.6 290.38 630.25 287.23 633.6"/>
        <path class="cls-1" d="M325.25,621.4c-1.65-.7-2.87-1.63-3.65-2.8-.78-1.17-1.17-2.4-1.17-3.7,0-1.8.61-3.23,1.83-4.3,1.22-1.07,2.84-1.6,4.88-1.6,1.13,0,2.22.12,3.28.38,1.05.25,2.06.64,3.02,1.17l1.8-3.15c-1.2-.7-2.49-1.23-3.88-1.6-1.38-.37-2.79-.55-4.22-.55-2.03,0-3.84.41-5.42,1.22-1.58.82-2.83,1.95-3.73,3.4-.9,1.45-1.35,3.12-1.35,5.03,0,1.63.36,3.07,1.08,4.3.72,1.23,1.72,2.32,3.02,3.25h-11c-1,0-1.82-.09-2.45-.28-.63-.18-1.12-.47-1.47-.85-.35-.38-.6-.88-.75-1.5-.15-.62-.23-1.34-.23-2.17v-28.45h-3.8v29.2c0,1.13.13,2.18.4,3.15.27.97.71,1.79,1.32,2.48s1.45,1.22,2.5,1.6c1.05.38,2.34.58,3.88.58h26.85v-3.75h-4.5c-2.5,0-4.57-.35-6.22-1.05Z"/>
        <path class="cls-1" d="M397.93,589.2v33.25h-11.45v-33.25h-3.8v33.25h-15.3c-.67,0-1.29-.18-1.88-.55-.58-.37-1.16-.93-1.73-1.7-.57-.77-1.2-1.73-1.9-2.9l-8.75-14.75-2.75,3.55,8.3,13.2c.49.79.98,1.5,1.48,2.17-.28.2-.59.37-.93.51-.8.32-2.03.48-3.7.48h-13.55l.7,3.75h12.85c1.2,0,2.27-.09,3.2-.28.93-.18,1.74-.48,2.42-.9.45-.28.84-.63,1.17-1.05.13.12.25.26.38.37.68.6,1.41,1.06,2.18,1.38.77.32,1.58.48,2.45.48h34.4v-37h-3.8Z"/>
      </g>
    </g>
  </g>
</svg>