<?xml version="1.0" encoding="UTF-8"?>
<svg id="Layer_2" data-name="Layer 2" xmlns="http://www.w3.org/2000/svg" viewBox="0 0 1089.69 475.74">
  <defs>
    <style>
      .cls-1 {
        fill: #7cf25c;
      }
    </style>
  </defs>
  <g id="Layer_1-2" data-name="Layer 1">
    <g>
      <g>
        <path class="cls-1" d="M322.11,224.59L23,51.9c-10.22-5.9-23,1.48-23,13.28v345.38c0,11.81,12.78,19.18,23,13.28l299.11-172.69c10.22-5.9,10.22-20.66,0-26.56ZM208.8,243.77l-132.93,76.75c-4.54,2.62-10.22-.66-10.22-5.9v-153.49c0-5.25,5.68-8.53,10.22-5.9l132.93,76.75c4.54,2.62,4.54,9.18,0,11.81Z"/>
        <g>
          <path class="cls-1" d="M148.27,61.23h108.75c60.52,0,93.6,28.85,93.6,84.45,0,11.09-1.37,21.1-4.03,30.05l59.67,34.45c8.37-19.45,12.63-42.42,12.63-68.72C418.89,49.26,364.7,0,263.36,0H55.75c-4.05,0-7.82.45-11.29,1.29l103.82,59.94Z"/>
          <path class="cls-1" d="M327.48,311.05l-57.87,33.41,90.16,115.1c8.45,11.26,16.89,16.19,30.26,16.19,19.7,0,33.08-13.37,33.08-33.78,0-8.45-2.81-16.89-9.15-25.34l-86.48-105.58Z"/>
        </g>
      </g>
      <g>
        <path class="cls-1" d="M645.96,258.98c.92,1.29,1.48,2.58,1.48,3.88,0,2.95-2.03,5.17-5.17,5.17-1.66,0-3.14-.74-4.25-2.21l-39.68-49.47h-44.86v46.15c0,3.51-1.84,5.54-4.98,5.54-3.32,0-5.17-2.03-5.17-5.54v-113.7c0-3.51,2.22-5.54,5.54-5.54h58.14c25.66,0,39.5,12.55,39.5,35.99s-12.74,35.07-36.18,36.18v.37l35.62,43.19ZM606.28,207.12c19.75,0,29.9-9.41,29.9-27.32s-10.15-27.32-29.9-27.32h-52.79v54.64h52.79Z"/>
        <path class="cls-1" d="M791.59,257.69c3.14,0,5.17,1.66,5.17,4.61s-2.03,4.61-5.17,4.61h-89.89c-3.32,0-5.54-2.03-5.54-5.54v-112.6c0-3.51,2.22-5.54,5.54-5.54h89.89c3.14,0,5.17,1.66,5.17,4.61s-2.03,4.62-5.17,4.62h-85.28v47.44h71.8c3.14,0,4.98,1.85,4.98,4.61,0,2.95-1.85,4.62-4.98,4.62h-71.8v48.54h85.28Z"/>
        <path class="cls-1" d="M939.44,257.69c3.14,0,5.17,1.66,5.17,4.61s-2.03,4.61-5.17,4.61h-89.89c-3.32,0-5.54-2.03-5.54-5.54v-112.6c0-3.51,2.22-5.54,5.54-5.54h89.89c3.14,0,5.17,1.66,5.17,4.61s-2.03,4.62-5.17,4.62h-85.28v47.44h71.8c3.14,0,4.98,1.85,4.98,4.61,0,2.95-1.85,4.62-4.98,4.62h-71.8v48.54h85.28Z"/>
        <path class="cls-1" d="M1084.52,257.69c3.14,0,5.17,1.66,5.17,4.61s-2.03,4.61-5.17,4.61h-87.12c-3.32,0-5.54-2.03-5.54-5.54v-113.7c0-3.51,1.85-5.54,5.17-5.54,3.14,0,4.98,2.03,4.98,5.54v110.01h82.51Z"/>
      </g>
      <g>
        <polygon class="cls-1" points="568.85 326.55 564 321.63 559.38 326.55 564.22 331.46 568.85 326.55"/>
        <path class="cls-1" d="M583.78,343.65c-.86-2.64-2.12-5.55-3.78-8.73l-4.26,5.06c1.17,2.3,2.12,4.48,2.83,6.53.71,2.06,1.25,3.94,1.62,5.65s.55,3.3.55,4.77c0,1.86-.42,3.56-1.25,5.1s-1.96,2.86-3.38,3.96-3.09,1.95-5.03,2.53c-1.93.59-4,.88-6.2.88-3.33,0-6.15-.5-8.48-1.51-2.33-1-4.11-2.46-5.36-4.37-1.25-1.91-1.87-4.26-1.87-7.05,0-1.47.21-3.17.62-5.1.42-1.93,1.04-4,1.87-6.2l-4.85-1.62c-1.08,2.74-1.86,5.3-2.35,7.67-.49,2.37-.73,4.32-.73,5.83,0,2.59.43,4.98,1.28,7.16.86,2.18,2.14,4.06,3.85,5.65,1.71,1.59,3.86,2.83,6.46,3.71,2.59.88,5.6,1.32,9.03,1.32,4.3,0,8.07-.8,11.3-2.39,3.23-1.59,5.75-3.82,7.56-6.68,1.81-2.86,2.72-6.2,2.72-10.02,0-1.42-.15-3.14-.44-5.17-.29-2.03-.87-4.37-1.72-7.01Z"/>
        <path class="cls-1" d="M688.95,350.99c-2.42-1.03-4.21-2.4-5.36-4.11-1.15-1.71-1.72-3.52-1.72-5.43,0-2.64.89-4.75,2.68-6.31,1.79-1.57,4.17-2.35,7.16-2.35,1.66,0,3.27.18,4.81.55,1.54.37,3.02.94,4.44,1.72l2.64-4.62c-1.76-1.03-3.66-1.81-5.69-2.35-2.03-.54-4.1-.81-6.2-.81-2.98,0-5.64.6-7.96,1.8-2.33,1.2-4.15,2.86-5.47,4.99-1.32,2.13-1.98,4.59-1.98,7.38,0,2.4.52,4.5,1.58,6.31,1.05,1.81,2.53,3.4,4.44,4.77h-45.94c-2.74,0-4.55-.54-5.43-1.62-.88-1.08-1.32-2.89-1.32-5.43v-41.76h-5.58v38.19c-.2-.24-.38-.47-.59-.72-1.96-2.37-4.24-4.99-6.86-7.85-2.62-2.86-5.54-5.88-8.77-9.06-3.23-3.18-6.75-6.41-10.57-9.69l-1.03,6.17c2.64,2.25,5.17,4.53,7.6,6.83,2.42,2.3,4.72,4.58,6.9,6.82,2.18,2.25,4.19,4.42,6.06,6.5,1.86,2.08,3.52,4.03,4.99,5.83.63.77,1.2,1.5,1.75,2.21-.84.9-1.88,1.61-3.15,2.12-1.32.54-2.83.92-4.51,1.14-1.69.22-3.51.33-5.47.33h-13.29l1.1,5.5h10.42c2.94,0,5.5-.15,7.71-.44,2.2-.29,4.1-.75,5.69-1.36,1.51-.58,2.76-1.32,3.77-2.21.21.31.43.61.67.89.88,1,2.07,1.77,3.56,2.31,1.49.54,3.34.81,5.54.81h69.13v-5.5h-6.61c-3.67,0-6.71-.51-9.14-1.54Z"/>
        <path class="cls-1" d="M738.31,335.06c1.32-2.69,2.36-5.64,3.12-8.84.76-3.21,1.25-6.67,1.47-10.39.22-3.72.18-7.66-.11-11.82l-5.58.88c.15,2.69.21,5.27.18,7.74-.03,2.47-.15,4.82-.37,7.05-.22,2.23-.55,4.32-.99,6.27-.38,1.68-.86,3.25-1.42,4.75-2.41-2.64-5.18-5.3-8.34-7.97-3.52-2.98-7.54-5.92-12.04-8.81l-1.47,5.72c4.4,2.94,8.31,5.8,11.71,8.59,3.03,2.48,5.62,4.97,7.81,7.45-.27.48-.51.96-.8,1.43-1.13,1.81-2.37,3.59-3.74,5.32-1.37,1.74-2.83,3.42-4.37,5.06-1.54,1.64-3.14,3.24-4.81,4.81l1.1,5.73h24.73c.29-.88.51-1.76.66-2.64.15-.88.22-1.76.22-2.64,0-2.98-.66-6.07-1.98-9.25-1.16-2.79-2.84-5.61-4.99-8.44ZM725.39,352.53c1.57-1.62,3.12-3.38,4.66-5.29,1.54-1.91,3.02-3.89,4.44-5.94.37-.54.71-1.09,1.06-1.63,1.34,1.86,2.45,3.73,3.31,5.59,1.1,2.4,1.77,4.82,2.02,7.27h-15.49Z"/>
        <path class="cls-1" d="M725.76,304.24h-3.45c-2.01,0-3.45-.35-4.33-1.06-.88-.71-1.32-1.58-1.32-2.61,0-.88.29-1.61.88-2.2.59-.59,1.47-.88,2.64-.88.54,0,1.08.06,1.62.18.54.12,1.05.31,1.54.55l1.39-2.94c-.69-.34-1.43-.61-2.24-.81s-1.63-.29-2.46-.29c-2.01,0-3.63.59-4.88,1.76-1.25,1.17-1.87,2.69-1.87,4.55,0,.73.12,1.41.37,2.02.25.61.59,1.19,1.03,1.72h-3.23v3.3h14.31v-3.3Z"/>
        <rect class="cls-1" x="757.39" y="303.72" width="5.58" height="54.31"/>
        <path class="cls-1" d="M800.76,336.42c-1.22-1.83-2.69-3.27-4.4-4.29-1.71-1.03-3.6-1.54-5.65-1.54-1.81,0-3.54.39-5.17,1.17-1.64.78-3.09,1.87-4.37,3.27-1.27,1.39-2.29,3.04-3.05,4.95-.76,1.91-1.14,3.99-1.14,6.24,0,1.66.27,3.17.81,4.51.54,1.35,1.37,2.52,2.5,3.52,1.13,1,2.53,1.77,4.22,2.31,1.69.54,3.66.81,5.91.81,1.47,0,2.95-.15,4.44-.44s2.92-.69,4.29-1.17c-.44,2.79-1.32,5.21-2.64,7.26-1.32,2.06-3.03,3.63-5.14,4.73s-4.53,1.65-7.26,1.65c-1.47,0-3.12-.27-4.95-.81-1.83-.54-3.56-1.22-5.17-2.06l-2.2,4.04c2.06,1.42,4.24,2.5,6.57,3.23s4.47,1.1,6.42,1.1c2.64,0,5.02-.42,7.12-1.25,2.1-.83,3.95-1.99,5.54-3.49s2.92-3.22,4-5.17c1.08-1.96,1.87-4.07,2.39-6.35.51-2.27.77-4.61.77-7.01,0-3.18-.33-6.06-.99-8.62s-1.6-4.77-2.83-6.61ZM795.19,351.46c-1.42.27-2.81.4-4.18.4-2.1,0-3.79-.26-5.06-.77-1.27-.51-2.21-1.25-2.83-2.2-.61-.95-.92-2.12-.92-3.49,0-1.57.36-3.06,1.07-4.48.71-1.42,1.7-2.58,2.97-3.49,1.27-.9,2.67-1.36,4.18-1.36,1.76,0,3.29.64,4.59,1.91,1.3,1.27,2.32,2.97,3.08,5.1.76,2.13,1.21,4.49,1.36,7.08-1.42.59-2.84,1.02-4.26,1.28Z"/>
        <polygon class="cls-1" points="874.75 310.25 869.83 305.34 865.21 310.25 870.13 315.17 874.75 310.25"/>
        <polygon class="cls-1" points="863.15 310.25 858.23 305.34 853.61 310.25 858.53 315.17 863.15 310.25"/>
        <polygon class="cls-1" points="909.9 368.9 914.82 373.81 919.44 368.9 914.52 363.98 909.9 368.9"/>
        <path class="cls-1" d="M927.84,347.21c-.12-3.5-.7-6.94-1.72-10.31s-2.35-6.7-3.96-9.98l-4.7,4.7c1.91,3.67,3.3,7.2,4.18,10.6.88,3.4,1.17,6.84.88,10.31h-39.19c-2.89,0-4.81-.54-5.76-1.62-.95-1.08-1.43-2.89-1.43-5.43v-25.32h-5.58v5.96c-3.54,1.48-6.63,2.84-9.21,4.05-3.06,1.44-5.52,2.83-7.38,4.15-1.86,1.32-3.22,2.73-4.07,4.22-.86,1.49-1.28,3.19-1.28,5.1,0,2.1.64,3.91,1.91,5.43,1.27,1.52,3.03,2.68,5.29,3.49,2.25.81,4.79,1.21,7.63,1.21,2.1,0,3.96-.13,5.58-.4.86-.14,1.75-.36,2.67-.63.37.81.83,1.54,1.4,2.18.9,1,2.13,1.77,3.67,2.31s3.44.81,5.69.81h43.74c1.22-3.72,1.77-7.33,1.65-10.83ZM866.46,348.24c-.98.07-1.98.11-3.01.11-2.98,0-5.27-.43-6.86-1.28-1.59-.85-2.39-2.07-2.39-3.63,0-.93.27-1.8.81-2.61.54-.81,1.51-1.69,2.9-2.64,1.39-.95,3.38-2.01,5.94-3.16,1.85-.83,4.1-1.75,6.72-2.77v14.33c0,.3.04.58.05.87-.37.1-.76.22-1.12.3-1.05.25-2.07.4-3.04.48Z"/>
        <polygon class="cls-1" points="921.5 368.9 926.41 373.81 931.04 368.9 926.12 363.98 921.5 368.9"/>
        <path class="cls-1" d="M977.31,350.99c-2.42-1.03-4.21-2.4-5.36-4.11-1.15-1.71-1.72-3.52-1.72-5.43,0-2.64.89-4.75,2.68-6.31,1.79-1.57,4.17-2.35,7.16-2.35,1.66,0,3.27.18,4.81.55,1.54.37,3.02.94,4.44,1.72l2.64-4.62c-1.76-1.03-3.66-1.81-5.69-2.35-2.03-.54-4.1-.81-6.2-.81-2.98,0-5.64.6-7.96,1.8-2.33,1.2-4.15,2.86-5.47,4.99-1.32,2.13-1.98,4.59-1.98,7.38,0,2.4.52,4.5,1.58,6.31,1.05,1.81,2.53,3.4,4.44,4.77h-16.15c-1.47,0-2.67-.13-3.6-.4-.93-.27-1.65-.68-2.16-1.25-.51-.56-.88-1.3-1.1-2.2-.22-.9-.33-1.97-.33-3.19v-41.76h-5.58v42.86c0,1.66.19,3.21.59,4.62.39,1.42,1.04,2.63,1.94,3.63s2.13,1.79,3.67,2.35c1.54.56,3.44.84,5.69.84h39.41v-5.5h-6.61c-3.67,0-6.71-.51-9.14-1.54Z"/>
        <path class="cls-1" d="M1083.99,303.72v48.81h-16.81v-48.81h-5.58v48.81h-22.46c-.98,0-1.9-.27-2.75-.81-.86-.54-1.7-1.37-2.53-2.5-.83-1.13-1.76-2.54-2.79-4.26l-12.84-21.65-4.04,5.21,12.18,19.38c.72,1.16,1.45,2.2,2.17,3.18-.41.29-.86.55-1.36.75-1.17.47-2.98.7-5.43.7h-19.89l1.03,5.5h18.86c1.76,0,3.33-.13,4.7-.4,1.37-.27,2.56-.71,3.56-1.32.67-.41,1.23-.93,1.72-1.54.19.18.37.38.56.55,1,.88,2.07,1.55,3.19,2.02,1.12.47,2.32.7,3.6.7h50.49v-54.31h-5.58Z"/>
      </g>
    </g>
  </g>
</svg>